<mxfile host="app.diagrams.net" modified="2021-05-10T11:58:26.260Z" agent="5.0 (Macintosh; Intel Mac OS X 10_15_6) AppleWebKit/537.36 (KHTML, like Gecko) Chrome/90.0.4430.93 Safari/537.36" etag="vcqI_mdU6sXANdP6IwUz" version="14.6.11" type="github">
  <diagram id="IskvgZTEknMmayzxG2AQ" name="Page-1">
    <mxGraphModel dx="1147" dy="650" grid="1" gridSize="10" guides="1" tooltips="1" connect="1" arrows="1" fold="1" page="1" pageScale="1" pageWidth="827" pageHeight="1169" math="0" shadow="0">
      <root>
        <mxCell id="0" />
        <mxCell id="1" parent="0" />
        <mxCell id="ng9sC7QbUENpqP5kl2ks-1" value="" style="rounded=1;whiteSpace=wrap;html=1;" vertex="1" parent="1">
          <mxGeometry x="90" y="470" width="55" height="240" as="geometry" />
        </mxCell>
        <mxCell id="ng9sC7QbUENpqP5kl2ks-3" value="Title" style="text;html=1;strokeColor=none;fillColor=none;align=center;verticalAlign=middle;whiteSpace=wrap;rounded=0;" vertex="1" parent="1">
          <mxGeometry x="135" y="225" width="40" height="20" as="geometry" />
        </mxCell>
        <mxCell id="ng9sC7QbUENpqP5kl2ks-9" value="" style="rounded=1;whiteSpace=wrap;html=1;" vertex="1" parent="1">
          <mxGeometry x="190" y="350" width="140" height="45" as="geometry" />
        </mxCell>
        <mxCell id="ng9sC7QbUENpqP5kl2ks-14" value="" style="rounded=1;whiteSpace=wrap;html=1;" vertex="1" parent="1">
          <mxGeometry x="354" y="330" width="140" height="45" as="geometry" />
        </mxCell>
        <mxCell id="ng9sC7QbUENpqP5kl2ks-15" value="" style="rounded=1;whiteSpace=wrap;html=1;" vertex="1" parent="1">
          <mxGeometry x="354" y="385" width="140" height="45" as="geometry" />
        </mxCell>
        <mxCell id="ng9sC7QbUENpqP5kl2ks-16" value="" style="endArrow=none;html=1;exitX=1;exitY=0.5;exitDx=0;exitDy=0;entryX=0;entryY=0.5;entryDx=0;entryDy=0;" edge="1" parent="1" source="ng9sC7QbUENpqP5kl2ks-9" target="ng9sC7QbUENpqP5kl2ks-14">
          <mxGeometry width="50" height="50" relative="1" as="geometry">
            <mxPoint x="350" y="260" as="sourcePoint" />
            <mxPoint x="400" y="210" as="targetPoint" />
          </mxGeometry>
        </mxCell>
        <mxCell id="ng9sC7QbUENpqP5kl2ks-18" value="" style="endArrow=none;html=1;entryX=0;entryY=0.5;entryDx=0;entryDy=0;exitX=1;exitY=0.5;exitDx=0;exitDy=0;" edge="1" parent="1" source="ng9sC7QbUENpqP5kl2ks-9" target="ng9sC7QbUENpqP5kl2ks-15">
          <mxGeometry width="50" height="50" relative="1" as="geometry">
            <mxPoint x="330" y="330" as="sourcePoint" />
            <mxPoint x="400" y="210" as="targetPoint" />
          </mxGeometry>
        </mxCell>
        <mxCell id="ng9sC7QbUENpqP5kl2ks-19" value="" style="rounded=1;whiteSpace=wrap;html=1;" vertex="1" parent="1">
          <mxGeometry x="190" y="495" width="130" height="45" as="geometry" />
        </mxCell>
        <mxCell id="ng9sC7QbUENpqP5kl2ks-20" value="" style="rounded=1;whiteSpace=wrap;html=1;" vertex="1" parent="1">
          <mxGeometry x="354" y="440" width="140" height="45" as="geometry" />
        </mxCell>
        <mxCell id="ng9sC7QbUENpqP5kl2ks-21" value="" style="rounded=1;whiteSpace=wrap;html=1;" vertex="1" parent="1">
          <mxGeometry x="354" y="495" width="140" height="45" as="geometry" />
        </mxCell>
        <mxCell id="ng9sC7QbUENpqP5kl2ks-22" value="" style="endArrow=none;html=1;exitX=1;exitY=0.5;exitDx=0;exitDy=0;entryX=0;entryY=0.5;entryDx=0;entryDy=0;" edge="1" parent="1" source="ng9sC7QbUENpqP5kl2ks-19" target="ng9sC7QbUENpqP5kl2ks-20">
          <mxGeometry width="50" height="50" relative="1" as="geometry">
            <mxPoint x="350" y="370" as="sourcePoint" />
            <mxPoint x="400" y="320" as="targetPoint" />
          </mxGeometry>
        </mxCell>
        <mxCell id="ng9sC7QbUENpqP5kl2ks-23" value="" style="endArrow=none;html=1;entryX=0;entryY=0.5;entryDx=0;entryDy=0;exitX=1;exitY=0.5;exitDx=0;exitDy=0;" edge="1" parent="1" source="ng9sC7QbUENpqP5kl2ks-19" target="ng9sC7QbUENpqP5kl2ks-21">
          <mxGeometry width="50" height="50" relative="1" as="geometry">
            <mxPoint x="330" y="440" as="sourcePoint" />
            <mxPoint x="400" y="320" as="targetPoint" />
          </mxGeometry>
        </mxCell>
        <mxCell id="ng9sC7QbUENpqP5kl2ks-24" value="" style="rounded=1;whiteSpace=wrap;html=1;" vertex="1" parent="1">
          <mxGeometry x="190" y="630" width="140" height="45" as="geometry" />
        </mxCell>
        <mxCell id="ng9sC7QbUENpqP5kl2ks-25" value="" style="rounded=1;whiteSpace=wrap;html=1;" vertex="1" parent="1">
          <mxGeometry x="354" y="610" width="140" height="45" as="geometry" />
        </mxCell>
        <mxCell id="ng9sC7QbUENpqP5kl2ks-26" value="" style="rounded=1;whiteSpace=wrap;html=1;" vertex="1" parent="1">
          <mxGeometry x="354" y="665" width="140" height="45" as="geometry" />
        </mxCell>
        <mxCell id="ng9sC7QbUENpqP5kl2ks-27" value="" style="endArrow=none;html=1;exitX=1;exitY=0.5;exitDx=0;exitDy=0;entryX=0;entryY=0.5;entryDx=0;entryDy=0;" edge="1" parent="1" source="ng9sC7QbUENpqP5kl2ks-24" target="ng9sC7QbUENpqP5kl2ks-25">
          <mxGeometry width="50" height="50" relative="1" as="geometry">
            <mxPoint x="350" y="540" as="sourcePoint" />
            <mxPoint x="400" y="490" as="targetPoint" />
          </mxGeometry>
        </mxCell>
        <mxCell id="ng9sC7QbUENpqP5kl2ks-28" value="" style="endArrow=none;html=1;entryX=0;entryY=0.5;entryDx=0;entryDy=0;exitX=1;exitY=0.5;exitDx=0;exitDy=0;" edge="1" parent="1" source="ng9sC7QbUENpqP5kl2ks-24" target="ng9sC7QbUENpqP5kl2ks-26">
          <mxGeometry width="50" height="50" relative="1" as="geometry">
            <mxPoint x="330" y="610" as="sourcePoint" />
            <mxPoint x="400" y="490" as="targetPoint" />
          </mxGeometry>
        </mxCell>
        <mxCell id="ng9sC7QbUENpqP5kl2ks-29" value="" style="rounded=1;whiteSpace=wrap;html=1;" vertex="1" parent="1">
          <mxGeometry x="190" y="745" width="140" height="45" as="geometry" />
        </mxCell>
        <mxCell id="ng9sC7QbUENpqP5kl2ks-30" value="" style="rounded=1;whiteSpace=wrap;html=1;" vertex="1" parent="1">
          <mxGeometry x="354" y="725" width="140" height="45" as="geometry" />
        </mxCell>
        <mxCell id="ng9sC7QbUENpqP5kl2ks-31" value="" style="rounded=1;whiteSpace=wrap;html=1;" vertex="1" parent="1">
          <mxGeometry x="354" y="780" width="140" height="45" as="geometry" />
        </mxCell>
        <mxCell id="ng9sC7QbUENpqP5kl2ks-32" value="" style="endArrow=none;html=1;exitX=1;exitY=0.5;exitDx=0;exitDy=0;entryX=0;entryY=0.5;entryDx=0;entryDy=0;" edge="1" parent="1" source="ng9sC7QbUENpqP5kl2ks-29" target="ng9sC7QbUENpqP5kl2ks-30">
          <mxGeometry width="50" height="50" relative="1" as="geometry">
            <mxPoint x="350" y="655" as="sourcePoint" />
            <mxPoint x="400" y="605" as="targetPoint" />
          </mxGeometry>
        </mxCell>
        <mxCell id="ng9sC7QbUENpqP5kl2ks-33" value="" style="endArrow=none;html=1;entryX=0;entryY=0.5;entryDx=0;entryDy=0;exitX=1;exitY=0.5;exitDx=0;exitDy=0;" edge="1" parent="1" source="ng9sC7QbUENpqP5kl2ks-29" target="ng9sC7QbUENpqP5kl2ks-31">
          <mxGeometry width="50" height="50" relative="1" as="geometry">
            <mxPoint x="330" y="725" as="sourcePoint" />
            <mxPoint x="400" y="605" as="targetPoint" />
          </mxGeometry>
        </mxCell>
        <mxCell id="ng9sC7QbUENpqP5kl2ks-34" value="" style="rounded=1;whiteSpace=wrap;html=1;" vertex="1" parent="1">
          <mxGeometry x="354" y="550" width="140" height="45" as="geometry" />
        </mxCell>
        <mxCell id="ng9sC7QbUENpqP5kl2ks-35" value="" style="endArrow=none;html=1;exitX=1;exitY=0.5;exitDx=0;exitDy=0;entryX=0;entryY=0.5;entryDx=0;entryDy=0;" edge="1" parent="1" source="ng9sC7QbUENpqP5kl2ks-19" target="ng9sC7QbUENpqP5kl2ks-34">
          <mxGeometry width="50" height="50" relative="1" as="geometry">
            <mxPoint x="350" y="570" as="sourcePoint" />
            <mxPoint x="400" y="520" as="targetPoint" />
          </mxGeometry>
        </mxCell>
        <mxCell id="ng9sC7QbUENpqP5kl2ks-36" value="" style="endArrow=none;html=1;exitX=1;exitY=0.5;exitDx=0;exitDy=0;entryX=0;entryY=0.5;entryDx=0;entryDy=0;" edge="1" parent="1" source="ng9sC7QbUENpqP5kl2ks-1" target="ng9sC7QbUENpqP5kl2ks-9">
          <mxGeometry width="50" height="50" relative="1" as="geometry">
            <mxPoint x="380" y="620" as="sourcePoint" />
            <mxPoint x="430" y="570" as="targetPoint" />
          </mxGeometry>
        </mxCell>
        <mxCell id="ng9sC7QbUENpqP5kl2ks-37" value="" style="endArrow=none;html=1;exitX=1;exitY=0.5;exitDx=0;exitDy=0;entryX=0;entryY=0.5;entryDx=0;entryDy=0;" edge="1" parent="1" source="ng9sC7QbUENpqP5kl2ks-1" target="ng9sC7QbUENpqP5kl2ks-19">
          <mxGeometry width="50" height="50" relative="1" as="geometry">
            <mxPoint x="155" y="600" as="sourcePoint" />
            <mxPoint x="200" y="382.5" as="targetPoint" />
          </mxGeometry>
        </mxCell>
        <mxCell id="ng9sC7QbUENpqP5kl2ks-38" value="" style="endArrow=none;html=1;exitX=1;exitY=0.5;exitDx=0;exitDy=0;entryX=0;entryY=0.5;entryDx=0;entryDy=0;" edge="1" parent="1" source="ng9sC7QbUENpqP5kl2ks-1" target="ng9sC7QbUENpqP5kl2ks-24">
          <mxGeometry width="50" height="50" relative="1" as="geometry">
            <mxPoint x="155" y="600" as="sourcePoint" />
            <mxPoint x="200" y="527.5" as="targetPoint" />
          </mxGeometry>
        </mxCell>
        <mxCell id="ng9sC7QbUENpqP5kl2ks-39" value="" style="endArrow=none;html=1;exitX=1;exitY=0.5;exitDx=0;exitDy=0;entryX=0;entryY=0.5;entryDx=0;entryDy=0;" edge="1" parent="1" source="ng9sC7QbUENpqP5kl2ks-1" target="ng9sC7QbUENpqP5kl2ks-29">
          <mxGeometry width="50" height="50" relative="1" as="geometry">
            <mxPoint x="155" y="600" as="sourcePoint" />
            <mxPoint x="200" y="662.5" as="targetPoint" />
          </mxGeometry>
        </mxCell>
      </root>
    </mxGraphModel>
  </diagram>
</mxfile>
